<svg xmlns="http://www.w3.org/2000/svg" version="1.1" xmlns:xlink="http://www.w3.org/1999/xlink" width="350" height="350"><svg version="1.1" id="SvgjsSvg1067" width="350" height="350" viewBox="0 0 350 350" sodipodi:docname="camel-icon.svg" inkscape:version="1.4.1-rc (06eac75fbf, 2025-03-29)" xmlns:inkscape="http://www.inkscape.org/namespaces/inkscape" xmlns:sodipodi="http://sodipodi.sourceforge.net/DTD/sodipodi-0.dtd" xmlns="http://www.w3.org/2000/svg" xmlns:svg="http://www.w3.org/2000/svg">
  <defs id="SvgjsDefs1066"></defs>
  <sodipodi:namedview id="SvgjsSodipodi:namedview1065" pagecolor="#aacb90" bordercolor="#000000" borderopacity="0.25" inkscape:showpageshadow="2" inkscape:pageopacity="0.0" inkscape:pagecheckerboard="0" inkscape:deskcolor="#d1d1d1" inkscape:zoom="3.24461" inkscape:cx="87.529781" inkscape:cy="147.78356" inkscape:window-width="1854" inkscape:window-height="1011" inkscape:window-x="0" inkscape:window-y="0" inkscape:window-maximized="1" inkscape:current-layer="g1"></sodipodi:namedview>
  <g inkscape:groupmode="layer" inkscape:label="Image" id="SvgjsG1064">
    <path style="fill:#000000;stroke-width:0.998974" d="m 140.54416,308.02311 c -7.93115,-0.42696 -14.73867,-0.83303 -15.12782,-0.90238 -1.53186,-0.27301 -2.97232,-9.04427 -6.32403,-38.50867 -0.44067,-3.87377 -0.30313,-5.76993 0.41851,-5.76993 0.98455,0 5.58908,13.66248 9.66063,28.6648 l 1.65192,6.08681 45.13881,-0.066 45.13881,-0.066 1.52103,-5.51907 c 0.83658,-3.03548 3.29747,-11.49093 5.46866,-18.78988 2.17118,-7.29893 3.94761,-13.70868 3.94761,-14.24385 0,-0.53518 -2.48583,0.17525 -5.52406,1.57874 -3.8475,1.77732 -7.97562,2.72134 -13.60169,3.11043 -7.3351,0.50729 -8.58178,0.91499 -13.56219,4.43523 -6.97059,4.92693 -13.42982,6.85043 -23.00414,6.85043 -9.60421,0 -16.08663,-1.93919 -22.93747,-6.86165 -4.95834,-3.56264 -6.08833,-3.93018 -13.65075,-4.43995 -18.05191,-1.21686 -33.73816,-13.46801 -40.134722,-31.3457 -1.882526,-5.26145 -2.247044,-9.09366 -2.890253,-30.38547 L 95.996977,177.48626 88.272139,164.72271 C 73.086427,139.63172 73.552912,140.56829 73.100922,134.26326 c -0.425538,-5.93603 0.808637,-10.83383 3.550937,-14.09182 1.264632,-1.50245 1.079992,-1.85968 -1.714949,-3.31803 C 61.308768,109.7425 55.09899,93.940592 59.494259,77.55679 62.591804,66.01038 70.821724,59.998489 81.349782,61.5915 c 5.841502,0.883884 10.033886,4.574682 19.003188,16.729609 l 6.63491,8.991427 11.5969,-11.454699 c 18.379,-18.153643 22.89906,-19.694841 57.76143,-19.694841 34.932,0 39.53148,1.568987 57.78811,19.712849 l 11.54379,11.472493 6.64813,-9.009328 c 8.98258,-12.17292 13.17295,-15.863333 19.0164,-16.74751 14.37167,-2.174591 24.4726,10.646449 23.13563,29.365884 -0.78707,11.020176 -7.14584,20.898966 -16.64139,25.853566 l -3.05078,1.59184 2.2455,3.0646 c 1.87411,2.55771 2.24551,4.34388 2.24551,10.79938 0,8.56765 0.91259,6.61573 -16.31658,34.899 l -6.20695,10.18929 -0.76877,24.43028 c -0.66973,21.28305 -1.04581,25.20591 -2.91932,30.45108 -2.59597,7.2678 -8.05414,15.5034 -13.24781,19.98907 l -3.82461,3.30322 -1.47846,12.93877 c -2.64913,23.18362 -4.77643,35.68209 -6.42237,37.73306 -1.51888,1.89264 -3.15283,1.99275 -37.35808,2.28904 -19.67335,0.17039 -42.25885,-0.0395 -50.19,-0.46647 z m 50.22232,-47.56968 c 2.73488,-1.26095 9.65666,-6.47124 15.38174,-11.5784 18.80859,-16.77856 20.03682,-16.65306 8.43856,0.86227 -4.12857,6.23483 -7.29674,11.5477 -7.04038,11.80638 0.25637,0.25867 3.07488,-0.0735 6.26336,-0.73814 16.1961,-3.37612 29.2259,-15.47864 33.60017,-31.20892 1.51746,-5.45693 1.7094,-9.70444 1.39827,-30.94319 -0.19835,-13.53992 0.0229,-25.40826 0.49164,-26.3741 0.72451,-1.49283 0.35183,-1.75937 -2.48625,-1.7781 -4.24566,-0.028 -10.60577,-2.97235 -13.6673,-6.32705 -3.3948,-3.7199 -5.14484,-11.29767 -3.93309,-17.03041 2.60289,-12.31414 19.54411,-22.03332 34.37748,-19.72235 2.6108,0.40676 4.93807,0.5578 5.17171,0.33566 0.23365,-0.22215 -7.80595,-8.75301 -17.86576,-18.9575 L 232.60608,90.24599 h -13.04387 c -13.9646,0 -12.99854,0.25712 -25.81223,-6.87 -4.34017,-2.414052 -30.46737,-2.414052 -34.80755,0 -12.81368,7.12712 -11.84762,6.87 -25.81222,6.87 h -13.04387 l -18.29055,18.55359 c -10.059816,10.20449 -18.099406,18.72737 -17.865765,18.93974 0.233642,0.21237 2.83604,0.0643 5.783109,-0.32907 15.760946,-2.10369 30.932066,7.21618 34.000106,20.88684 0.99654,4.44042 -1.13235,12.55171 -4.16711,15.87709 -3.06153,3.3547 -9.42164,6.29902 -13.6673,6.32705 -2.83808,0.0188 -3.21077,0.28527 -2.48625,1.7781 0.46876,0.96584 0.68753,12.8589 0.48617,26.42904 -0.38753,26.11754 0.18429,30.83968 4.85259,40.0728 3.36891,6.66312 10.67052,13.75736 17.93237,17.42306 6.46027,3.26108 17.41857,6.41278 18.50063,5.32095 0.26645,-0.26884 -2.90172,-5.59059 -7.04037,-11.82608 -11.55047,-17.40254 -10.12537,-17.56004 8.26993,-0.914 10.30933,9.32899 15.53521,12.62102 22.33816,14.07184 6.17363,1.31662 16.38069,0.20323 22.03442,-2.40351 z m -24.00296,-5.0799 c -1.71514,-0.75308 -4.47431,-3.35769 -6.13149,-5.78804 -3.73695,-5.48043 -9.85246,-11.12755 -14.82193,-13.6867 -2.0758,-1.06898 -4.54029,-2.79842 -5.47664,-3.84318 -2.60804,-2.91002 -4.76181,-8.86176 -4.76181,-13.15883 0,-2.89582 -0.65948,-4.48411 -2.61745,-6.3039 -3.86781,-3.59483 -6.28626,-9.68493 -6.31122,-15.89281 -0.0181,-4.5011 1.03345,-7.84472 6.13392,-19.50411 4.37018,-9.98997 5.78459,-14.19656 4.87613,-14.50211 -2.61918,-0.88093 -8.38946,-6.79769 -9.68828,-9.9342 -3.52801,-8.51986 -0.63099,-16.31655 9.01705,-24.26739 6.45238,-5.31731 7.02615,-6.1389 10.21925,-14.63289 4.31015,-11.46546 7.15515,-15.178983 14.12127,-18.432174 4.75995,-2.222912 6.97238,-2.607483 15.11534,-2.627397 8.66928,-0.0212 10.07255,0.251886 15.38742,2.994508 6.9475,3.58512 8.95689,6.337683 13.76292,18.853143 3.39541,8.84206 3.9724,9.67615 10.14731,14.66903 7.26616,5.87522 9.34147,9.59693 9.34147,16.75234 0,5.92132 -3.53209,12.31758 -8.20372,14.85609 l -3.3769,1.83498 6.28443,14.16721 c 5.27856,11.89964 6.28143,15.05059 6.26572,19.68628 -0.0214,6.2985 -2.41446,12.36067 -6.30809,15.9795 -1.99342,1.85274 -2.62266,3.40778 -2.63929,6.52253 -0.0371,6.9399 -3.0878,12.0916 -9.61416,16.23519 -7.1021,4.5091 -11.51163,8.59249 -15.43753,14.29573 -1.65928,2.41047 -4.49689,4.994 -6.33738,5.76993 -4.21379,1.77651 -14.85773,1.75251 -18.94634,-0.0427 z m 21.11549,-17.49578 c 5.43282,-5.36358 8.37015,-7.40936 13.17813,-9.17824 3.71706,-1.36752 7.16595,-3.45008 8.63909,-5.21658 2.88304,-3.45719 3.19561,-5.32793 0.71165,-4.25926 -0.9572,0.41182 -6.88692,0.94858 -13.17714,1.19281 -10.6449,0.41332 -11.76385,0.27414 -16.16065,-2.01011 l -4.72388,-2.45418 -4.72388,2.45418 c -4.3968,2.28425 -5.51576,2.42343 -16.16065,2.01011 -6.29022,-0.24423 -12.21994,-0.78099 -13.17714,-1.19281 -2.48396,-1.06867 -2.17139,0.80207 0.71165,4.25926 1.4705,1.76334 4.91937,3.84809 8.61586,5.20804 4.87797,1.79463 7.53029,3.67476 12.71411,9.01255 6.26569,6.4518 6.76779,6.75206 11.55603,6.91054 4.92314,0.16295 5.12108,0.0518 11.99682,-6.73631 z m -24.77848,-29.1191 c 2.28697,-0.4468 5.42586,-1.89471 6.97532,-3.21756 2.75298,-2.35034 2.79073,-2.51959 1.65575,-7.42251 -1.64069,-7.08748 -1.59329,-14.19889 0.13935,-20.91092 1.81213,-7.01996 1.80831,-6.68439 0.0763,-6.68439 -0.7785,0 -2.87976,-1.24179 -4.66946,-2.75954 -3.1306,-2.65487 -3.68142,-2.75953 -14.52299,-2.75953 h -11.269 l -0.9135,3.51213 c -3.79983,14.60936 -5.99515,24.33978 -5.99515,26.57266 0,4.99622 4.68204,11.32435 9.94552,13.4421 3.02166,1.21576 12.90048,1.33677 18.57786,0.22756 z m 45.39673,-0.46897 c 4.24445,-1.78943 8.37946,-6.83459 9.1945,-11.21827 0.45624,-2.45386 -0.43775,-7.90689 -2.9975,-18.28372 l -3.64762,-14.78695 -11.13459,0.33162 c -9.99727,0.29775 -11.38852,0.56809 -13.62083,2.64679 -1.36744,1.27335 -3.5341,2.63523 -4.8148,3.02639 -1.82318,0.55685 -2.18679,1.18021 -1.67543,2.87226 2.28442,7.55888 2.84246,16.75018 1.42221,23.42461 l -1.46299,6.87523 2.88982,2.41483 c 1.5894,1.32816 4.51333,2.73441 6.49763,3.12501 6.18661,1.21777 15.95883,1.00173 19.3496,-0.4278 z m -47.06857,-48.27596 c 0,-0.2612 -0.98093,-2.51214 -2.17984,-5.00211 -1.95178,-4.05355 -2.73583,-4.6903 -7.49397,-6.08599 -2.92276,-0.85733 -5.06688,-1.96242 -4.7647,-2.45575 0.30217,-0.49335 2.92256,-1.43285 5.82308,-2.08782 6.94853,-1.56903 9.9465,-0.0206 16.66777,8.60922 2.90936,3.73546 5.82549,6.49387 6.86518,6.49387 1.03969,0 3.95582,-2.75841 6.86518,-6.49387 6.68925,-8.58862 9.4795,-10.02988 16.55032,-8.54876 2.96469,0.62103 5.63776,1.53305 5.94015,2.02672 0.30238,0.49369 -1.84157,1.59906 -4.76433,2.45639 -4.75813,1.39569 -5.54218,2.03244 -7.49396,6.08599 -1.19891,2.48997 -2.17984,4.74091 -2.17984,5.00211 0,0.90368 10.07595,0.47051 14.35711,-0.61721 5.84434,-1.48489 11.26342,-6.14831 12.04796,-10.36795 0.92779,-4.99016 -1.53213,-8.71638 -8.99164,-13.62025 -7.03043,-4.6218 -9.08805,-7.47698 -13.96559,-19.3788 -3.67658,-8.97135 -6.35559,-10.89924 -16.01482,-11.52472 -5.4628,-0.35374 -8.49253,-0.0323 -11.83502,1.25574 -4.85047,1.8691 -5.92289,3.41142 -10.80426,15.53828 -3.03689,7.54457 -5.01373,9.90654 -12.75462,15.23946 -3.13202,2.15774 -6.15282,4.78712 -6.71289,5.84305 -2.69423,5.07962 0.0407,11.51348 6.27964,14.7726 3.66677,1.91546 18.55909,4.21024 18.55909,2.8598 z M 90.350544,142.39421 c 1.005802,-1.12142 3.819932,-2.54485 6.253624,-3.16318 4.330912,-1.10037 4.374002,-1.15115 2.028906,-2.39095 -2.085142,-1.10236 -13.494196,-4.44852 -15.167673,-4.44852 -1.336141,0 -0.473663,4.47333 1.569806,8.14197 2.504554,4.49642 2.844581,4.61544 5.315337,1.86068 z m 177.306666,-1.86068 c 1.19468,-2.1448 2.17213,-4.89003 2.17213,-6.10053 0,-1.95553 -0.36033,-2.12403 -3.23213,-1.51138 -3.50214,0.74712 -13.70562,4.18429 -14.34925,4.83373 -0.21771,0.21966 1.55289,0.89452 3.93468,1.49966 2.38178,0.60515 5.15343,2.01778 6.15923,3.1392 2.47076,2.75476 2.81079,2.63574 5.31534,-1.86068 z M 92.764021,102.65754 C 98.880131,96.238148 103.51784,90.61743 103.07003,90.16706 98.317084,85.38683 82.81445,73.025329 80.942986,72.523376 74.773721,70.868696 69.720468,78.29888 69.108811,89.92407 c -0.317491,6.034249 0.01595,8.071083 2.053397,12.54332 2.752078,6.04087 7.262188,11.86178 9.190643,11.86178 0.710034,0 6.295061,-5.25223 12.41117,-11.67163 z m 183.964209,7.73754 c 5.43111,-6.91914 7.27768,-12.450621 6.85256,-20.527222 -0.62681,-11.908705 -6.01934,-19.499252 -12.18337,-17.149389 -1.39993,0.533683 -7.0351,4.772676 -12.52261,9.419982 l -9.97729,8.449649 2.7356,3.090209 c 7.49772,8.469661 19.78271,20.650861 20.8268,20.650861 0.64916,0 2.5699,-1.77033 4.26831,-3.93409 z M 139.42759,79.770754 c 5.23892,-5.209474 9.22834,-9.771412 8.86538,-10.137641 -1.53056,-1.544352 -12.22077,4.850202 -18.76384,11.22395 -3.7873,3.689285 -6.886,7.085267 -6.886,7.546626 0,0.46136 1.63331,0.838835 3.62958,0.838835 3.24734,0 4.63275,-0.997518 13.15488,-9.47177 z m 12.19539,-0.24899 c 5.39314,-5.346417 9.80571,-10.087794 9.80571,-10.536392 0,-0.448597 -1.89398,-0.815632 -4.20884,-0.815632 -3.99494,0 -4.70251,0.496252 -13.92302,9.764966 -5.3428,5.370731 -9.71418,10.112107 -9.71418,10.536392 0,0.424284 1.85278,0.771426 4.11731,0.771426 3.86857,0 4.7097,-0.587257 13.92302,-9.72076 z m 65.80483,4.898285 4.70752,-4.822476 -2.30444,-2.184425 -2.30444,-2.184425 -6.30379,6.417665 c -5.89877,6.005314 -6.15142,6.446744 -3.93223,6.870246 4.81114,0.918139 5.52299,0.630475 10.13738,-4.096585 z m 12.62148,4.117648 c 0,-0.387655 -1.43172,-2.195299 -3.18159,-4.016986 l -3.1816,-3.312159 -3.28266,3.210367 c -1.80547,1.765702 -3.28267,3.573346 -3.28267,4.016986 0,0.443641 2.90891,0.806619 6.46426,0.806619 3.55534,0 6.46426,-0.317172 6.46426,-0.704827 z m -74.82552,-4.894084 c 7.70086,-4.071821 18.13894,-12.521487 18.13894,-14.683551 0,-0.434678 -1.91038,-0.790322 -4.24529,-0.790322 -4.05386,0 -4.69207,0.452503 -14.15299,10.034659 -5.44923,5.519063 -9.57563,10.034659 -9.16977,10.034659 0.40585,0 4.64895,-2.06795 9.42911,-4.595445 z m 54.4125,-3.40604 c 3.23345,-3.297004 5.68084,-6.170977 5.43863,-6.386604 -0.24221,-0.215628 -1.50703,-0.952907 -2.81069,-1.638396 -2.2086,-1.161311 -2.78534,-0.824847 -8.45326,4.931532 -5.81571,5.906459 -5.99815,6.241804 -4.1525,7.632949 1.06175,0.80029 2.41834,1.455073 3.01463,1.455073 0.5963,0 3.72974,-2.69755 6.96319,-5.994554 z m -7.96775,-4.001896 c 6.19109,-6.312765 6.16388,-5.964904 0.60225,-7.699098 -0.79615,-0.248253 -3.96989,2.097709 -7.19679,5.319724 l -5.77256,5.763819 2.72153,1.21757 c 1.49685,0.669663 2.95931,1.254246 3.24991,1.29907 0.29062,0.04482 3.16866,-2.610663 6.39566,-5.901085 z m -21.84156,-2.045142 5.90475,-6.020795 h -4.41285 c -3.98543,0 -4.92159,0.50695 -9.66526,5.233918 -2.88882,2.878654 -5.2524,5.588012 -5.2524,6.020795 0,0.432783 1.69223,0.786878 3.7605,0.786878 3.2771,0 4.51957,-0.773974 9.66526,-6.020796 z m 11.93402,0 5.90474,-6.020795 h -4.41285 c -3.98542,0 -4.92159,0.50695 -9.66525,5.233918 -2.88883,2.878654 -5.25241,5.588012 -5.25241,6.020795 0,0.432783 1.69224,0.786878 3.76051,0.786878 3.2771,0 4.51957,-0.773974 9.66526,-6.020796 z" id="SvgjsPath1063"></path>
    <path id="SvgjsPath1062" style="fill:#000000;stroke-width:1.17006" d="m 98.823209,125.25471 a 40.971359,25.062159 0 0 0 -40.970703,25.06255 40.971359,25.062159 0 0 0 40.970703,25.06256 40.971359,25.062159 0 0 0 40.972661,-25.06256 40.971359,25.062159 0 0 0 -40.972661,-25.06255 z m 0,4.48949 c 15.845771,0 29.112971,6.50008 32.433601,15.89105 2.2489,6.36003 -0.0936,12.51199 -6.75,17.73337 -6.93856,5.44277 -21.60159,8.67848 -32.347663,7.13666 -12.89133,-1.8496 -23.063112,-8.04728 -25.769532,-15.7012 -4.64166,-13.1269 10.801914,-25.05988 32.433594,-25.05988 z"></path>
    <path id="SvgjsPath1061" style="fill:#000000;stroke-width:1.17006" d="m 253.16373,125.25471 a 40.971359,25.062159 0 0 0 -40.9707,25.06255 40.971359,25.062159 0 0 0 40.9707,25.06256 40.971359,25.062159 0 0 0 40.97266,-25.06256 40.971359,25.062159 0 0 0 -40.97266,-25.06255 z m 0,4.48949 c 15.84577,0 29.11297,6.50008 32.4336,15.89105 2.2489,6.36003 -0.0936,12.51199 -6.75,17.73337 -6.93856,5.44277 -21.60159,8.67848 -32.34766,7.13666 -12.89133,-1.8496 -23.06311,-8.04728 -25.76953,-15.7012 -4.64166,-13.1269 10.80191,-25.05988 32.43359,-25.05988 z"></path>
    <path style="fill:#ffffff;stroke-width:0;stroke-opacity:6.58222e-07" d="m 168.67995,262.5442 c -6.2065,-1.31715 -11.7693,-4.80509 -21.59095,-13.53775 -10.10411,-8.9838 -14.82828,-12.76735 -15.94143,-12.76735 -1.61941,0 -0.44255,2.37827 6.61283,13.36351 2.94995,4.59308 5.78695,9.18099 6.30444,10.19536 l 0.9409,1.84431 -2.27477,-0.30175 c -3.34569,-0.44382 -12.12484,-3.43961 -16.02306,-5.46769 -10.97628,-5.71049 -18.94595,-15.94018 -21.55404,-27.66629 -0.80859,-3.63544 -0.89566,-5.92272 -1.08151,-28.41074 l -0.20213,-24.45699 3.17164,-0.31253 c 9.79667,-0.96534 20.86184,-5.59953 26.51292,-11.10386 2.0759,-2.02199 2.14937,-2.0534 3.10941,-1.32924 1.37814,1.03954 1.17818,1.74438 -4.12373,14.53534 -5.50873,13.28993 -5.92154,14.64476 -5.92154,19.43435 0,6.32086 1.75884,11.17143 5.70959,15.74606 2.43116,2.81507 3.00772,4.08989 3.00772,6.65028 0,3.95739 2.27907,10.20763 4.74701,13.01845 0.76443,0.87064 3.39248,2.80836 5.84011,4.30604 4.76199,2.91382 10.7692,8.5042 14.91941,13.88417 2.89692,3.75531 5.26343,5.49624 8.33918,6.13477 3.49824,0.72623 14.24854,0.36804 16.33965,-0.54442 2.17752,-0.95015 4.81455,-3.42126 7.59879,-7.12065 3.21462,-4.27122 7.82449,-8.52432 13.37717,-12.34187 2.56985,-1.76682 5.38241,-3.99822 6.25012,-4.95868 2.17302,-2.40526 4.01631,-6.54406 4.31983,-9.69942 0.60202,-6.25847 0.57677,-6.18454 3.09046,-9.04763 4.15098,-4.72796 5.99212,-9.81126 5.96206,-16.46094 -0.0212,-4.69745 -1.0446,-7.76611 -7.33695,-22.00077 -2.54326,-5.75342 -4.71426,-10.67101 -4.82443,-10.92797 -0.11017,-0.25696 0.32093,-0.70468 0.95799,-0.99495 1.08193,-0.49296 1.30572,-0.38896 3.3948,1.57759 4.07584,3.83679 8.83602,6.58797 14.94958,8.64023 3.9283,1.31868 11.1646,2.79476 13.701,2.79476 h 1.75675 l -0.16099,24.9533 c -0.15443,23.9374 -0.19916,25.09053 -1.09872,28.324 -2.98482,10.72891 -9.22186,19.42043 -18.28771,25.48447 -5.75647,3.85044 -11.78933,6.09777 -19.6999,7.33852 l -1.92331,0.30166 1.22886,-2.12065 c 0.67587,-1.16636 3.42298,-5.55309 6.10469,-9.74829 2.68172,-4.19521 5.39693,-8.52751 6.03381,-9.62734 1.24832,-2.1557 1.50773,-3.8845 0.5829,-3.8845 -0.88241,0 -4.60114,2.91583 -12.6749,9.93828 -12.726,11.06892 -17.20243,14.13714 -22.67596,15.54253 -6.13514,1.57526 -12.51118,1.87615 -17.46759,0.82429 z" id="SvgjsPath1060"></path>
    <path style="fill:#ffffff;stroke-width:0;stroke-opacity:6.58222e-07" d="m 146.24586,208.76533 c -3.87693,-0.81369 -8.12573,-4.63869 -10.27095,-9.24646 -1.74925,-3.75726 -1.60688,-4.88427 2.9461,-23.32024 l 2.71797,-11.0056 9.59769,0.0106 c 5.27874,0.006 10.46298,0.21011 11.52054,0.45388 1.12162,0.25854 3.11942,1.33935 4.79452,2.59383 1.57943,1.18283 3.41107,2.26907 4.07031,2.41388 1.49956,0.32937 1.50106,0.64454 0.0315,6.58813 -1.54265,6.23911 -1.61566,14.25693 -0.18976,20.83823 0.91925,4.24282 0.92262,4.37635 0.13756,5.44832 -1.17084,1.59875 -4.62904,3.81724 -7.21423,4.62806 -2.65444,0.83253 -15.0724,1.24142 -18.14123,0.59732 z" id="SvgjsPath1059"></path>
    <path style="fill:#ffffff;stroke-width:0;stroke-opacity:6.58222e-07" d="m 172.94056,244.12307 c -2.07911,-0.53202 -3.21169,-1.39765 -7.79079,-5.95447 -5.75875,-5.73073 -7.71947,-7.17789 -12.65887,-9.3432 -5.80249,-2.54366 -8.18714,-4.07927 -9.97906,-6.42608 -1.26752,-1.66001 -1.91829,-3.15897 -1.37147,-3.15897 0.0758,0 1.20364,0.19554 2.50623,0.43453 3.73674,0.68559 19.26438,1.28723 22.30991,0.86443 1.80856,-0.25108 4.02178,-1.03636 6.58836,-2.33765 l 3.86492,-1.95955 3.83469,1.96286 c 2.49144,1.27529 4.75723,2.09326 6.46832,2.33512 3.05549,0.43189 18.47759,-0.17351 22.3616,-0.87782 1.44585,-0.26218 2.70431,-0.40121 2.79657,-0.30894 0.0923,0.0923 -0.40821,1.07594 -1.11216,2.18596 -1.67518,2.64147 -4.56644,4.71841 -9.35935,6.72327 -5.41922,2.26685 -8.25854,4.22207 -13.66076,9.40712 -6.40046,6.14317 -6.97431,6.50817 -10.49493,6.67543 -1.59366,0.0757 -3.53011,-0.0242 -4.30321,-0.22204 z" id="SvgjsPath1058"></path>
    <path style="fill:#ffffff;stroke-width:0;stroke-opacity:6.58222e-07" d="m 190.76713,208.79398 c -2.66434,-0.41675 -7.01653,-2.48213 -9.19589,-4.36403 l -1.49227,-1.28858 0.98343,-5.02776 c 1.52181,-7.78015 1.28816,-16.35207 -0.65122,-23.8921 -0.35677,-1.38707 -0.53586,-2.70447 -0.39799,-2.92756 0.13788,-0.22309 1.25139,-0.90824 2.47447,-1.52256 1.22309,-0.61432 2.80818,-1.60868 3.52243,-2.20968 2.52142,-2.12164 3.6092,-2.4112 10.71946,-2.8535 3.76118,-0.23396 8.49707,-0.36769 10.52421,-0.29718 l 3.6857,0.1282 2.72788,11.11457 c 1.50033,6.11301 3.04733,13.2721 3.43776,15.90909 0.70292,4.74743 0.70042,4.81942 -0.25417,7.32996 -1.28465,3.37858 -5.2702,7.66804 -8.39786,9.03823 -2.00214,0.87711 -3.10724,1.01662 -8.82667,1.11432 -3.59589,0.0614 -7.58256,-0.0517 -8.85927,-0.25142 z" id="SvgjsPath1057"></path>
    <path style="fill:#ffffff;stroke-width:0;stroke-opacity:6.58222e-07" d="m 154.91483,159.7386 c -7.33065,-1.00071 -13.55496,-2.98615 -14.644,-4.67116 -0.19662,-0.30421 -0.36747,-2.31837 -0.37968,-4.47591 -0.0188,-3.31686 -0.2052,-4.32079 -1.20701,-6.49945 l -1.18484,-2.57666 1.4247,-1.23962 c 0.78358,-0.6818 2.91615,-2.31063 4.73905,-3.61963 4.46276,-3.20464 7.55603,-6.03835 9.20038,-8.42832 0.75033,-1.09057 2.59839,-4.9175 4.1068,-8.50429 4.38575,-10.42871 5.87021,-12.35111 10.83799,-14.03539 4.682,-1.58739 15.13621,-1.19112 19.2201,0.72853 3.51649,1.65295 4.83385,3.63432 9.3688,14.09117 3.58379,8.26362 5.18865,10.12331 14.56959,16.88296 1.20292,0.86679 2.55484,1.98231 3.00427,2.47893 0.80217,0.88637 0.79424,0.95301 -0.43213,3.63303 -1.05797,2.31203 -1.25104,3.29741 -1.26081,6.43494 -0.006,2.03768 0.0865,4.19311 0.20639,4.78986 0.19683,0.97993 -0.0986,1.24434 -3.05105,2.73053 -1.79795,0.90505 -4.24969,1.82341 -5.44832,2.0408 -3.46009,0.62754 -11.27306,0.98742 -11.91258,0.54871 -0.45874,-0.31469 -0.16502,-1.22435 1.40416,-4.34878 1.09133,-2.17297 2.42146,-4.25709 2.95584,-4.63139 0.53438,-0.37429 2.49823,-1.18895 4.36412,-1.81034 3.4113,-1.13607 5.63014,-2.46789 5.06192,-3.03833 -0.16823,-0.16889 -1.44313,-0.69053 -2.83313,-1.15921 -3.23628,-1.09121 -8.63167,-1.50658 -10.70051,-0.8238 -2.13973,0.70617 -4.88078,3.21981 -9.2436,8.4767 -3.69683,4.45443 -5.7789,6.37843 -6.90246,6.37843 -0.59906,0 -3.20287,-2.63923 -9.55887,-9.68891 -4.44465,-4.92972 -6.09556,-5.75235 -10.9364,-5.44946 -3.41935,0.21395 -7.19514,1.12483 -8.57894,2.06961 -1.01888,0.69562 0.85742,2.01029 4.40847,3.0889 4.55983,1.385 5.56132,2.24698 7.73779,6.65989 1.52178,3.08551 1.78395,3.93498 1.30759,4.23676 -0.69438,0.4399 -0.31871,0.45781 -5.64363,-0.2691 z" id="SvgjsPath1056"></path>
    <path style="fill:#ffffff;stroke-width:0;stroke-opacity:6.58222e-07" d="m 129.4309,133.33063 c -6.89926,-4.68853 -16.99179,-7.62333 -27.87424,-8.10555 -5.175006,-0.22931 -13.511656,0.3492 -15.383583,1.06753 -1.49649,0.57425 1.518441,-2.69105 17.406283,-18.85176 l 16.28322,-16.562892 11.84024,-0.282779 c 6.51213,-0.155529 12.88387,-0.506598 14.15942,-0.780155 1.27555,-0.273556 4.28347,-1.508094 6.68426,-2.743417 2.4008,-1.235323 5.24771,-2.689378 6.32648,-3.231233 2.76368,-1.388172 7.44456,-1.897659 17.43462,-1.897659 12.96044,0 14.11144,0.226243 22.44707,4.412201 l 6.97385,3.502104 5.44832,0.388153 c 2.99657,0.213483 9.06206,0.39416 13.47885,0.401502 l 8.03053,0.01335 13.54481,13.843145 c 18.56588,18.97481 20.9145,21.42966 20.70263,21.63905 -0.10118,0.1 -2.24343,-0.0908 -4.76056,-0.42405 -14.04437,-1.85927 -28.93541,0.80974 -38.42545,6.88722 l -2.46654,1.57959 -0.80245,-0.90024 c -0.44134,-0.49513 -2.73223,-2.56649 -5.09086,-4.60302 -2.35862,-2.03652 -4.82969,-4.45 -5.49127,-5.36328 -0.66158,-0.91328 -2.52845,-4.95742 -4.1486,-8.98698 -5.15838,-12.82967 -7.00869,-15.262515 -14.40297,-18.937482 -3.97942,-1.977772 -4.75686,-2.204846 -8.93525,-2.609775 -4.86724,-0.471688 -12.30944,-0.213234 -15.90909,0.552491 -1.19863,0.254976 -3.80008,1.234944 -5.78099,2.177706 -6.42491,3.057756 -9.4143,7.05109 -13.8224,18.46443 -2.62094,6.78607 -3.45784,8.15195 -7.04943,11.50511 -1.64232,1.53329 -4.36853,4.12275 -6.05825,5.75436 l -3.07222,2.96656 z" id="SvgjsPath1055"></path>
    <path style="fill:#ffffff;stroke-width:0;stroke-opacity:6.58222e-07" d="m 78.440347,112.81714 c -3.386023,-2.97297 -8.085126,-11.50718 -8.960189,-16.27293 -0.543111,-2.957881 -0.224118,-8.567509 0.72651,-12.776004 1.307778,-5.789624 4.294044,-10.089724 7.630954,-10.98826 1.513222,-0.407469 2.027811,-0.347902 3.589573,0.415511 3.327481,1.626525 21.219135,16.163699 21.219135,17.240791 0,1.459502 -18.959909,21.808272 -21.672388,23.259952 -0.825744,0.44192 -1.161922,0.32528 -2.533595,-0.87906 z" id="SvgjsPath1054"></path>
    <path style="fill:#ffffff;stroke-width:0;stroke-opacity:6.58222e-07" d="m 123.32106,88.433966 c -0.41591,-0.672955 7.93409,-8.994566 12.45105,-12.408719 4.10171,-3.100291 10.33213,-6.462259 11.53255,-6.223029 0.6089,0.121345 0.0822,0.943489 -2.4721,3.859053 -4.46628,5.097884 -13.51777,13.688356 -15.32813,14.547429 -1.69588,0.804747 -5.73431,0.951871 -6.18337,0.225266 z" id="SvgjsPath1053"></path>
    <path style="fill:#ffffff;stroke-width:0;stroke-opacity:6.58222e-07" d="m 88.153799,169.64908 c -4.909756,-1.12849 -9.965174,-3.1966 -13.620797,-5.57211 -2.097992,-1.36332 -5.816283,-5.0504 -6.825783,-6.76848 -0.398016,-0.67739 -0.97885,-1.95096 -1.290742,-2.83014 -0.492484,-1.38826 -0.568218,-1.95686 -0.575757,-4.32268 -0.0079,-2.46432 0.04918,-2.87627 0.597883,-4.31881 1.021378,-2.6852 2.010336,-4.13996 4.468807,-6.57363 l 2.307367,-2.28409 0.161003,0.94312 c 0.359723,2.10718 1.605189,4.73313 5.039062,10.62438 1.643498,2.81964 10.615986,17.73239 12.933029,21.49539 0.170058,0.27619 -0.804455,0.15629 -3.194072,-0.39295 z" id="SvgjsPath1052"></path>
    <path style="fill:#ffffff;stroke-width:0;stroke-opacity:6.58222e-07" d="m 86.896582,143.283 c -0.349333,-0.4238 -1.096317,-1.6452 -1.659964,-2.71422 -2.153595,-4.08453 -2.973586,-8.06567 -1.661277,-8.06567 0.712545,0 6.891265,1.64762 10.244709,2.73185 4.46879,1.44485 6.48641,2.40483 6.024692,2.86654 -0.06659,0.0666 -1.277764,0.45906 -2.691499,0.87215 -3.60349,1.05293 -5.452064,1.99186 -7.237377,3.67604 -0.835949,0.78859 -1.684506,1.40386 -1.936151,1.40386 -0.247794,0 -0.731809,-0.34433 -1.083133,-0.77055 z" id="SvgjsPath1051"></path>
    <path style="fill:#ffffff;stroke-width:0;stroke-opacity:6.58222e-07" d="m 116.59635,166.78675 c 3.18444,-2.13551 4.69605,-4.21683 6.09093,-8.38653 1.99616,-5.96708 1.79245,-10.10603 -0.75591,-15.35832 -1.94844,-4.01582 -5.34046,-7.82061 -9.38265,-10.52438 -1.08703,-0.7271 -1.89574,-1.322 -1.79715,-1.322 0.0986,0 1.03014,0.2341 2.07009,0.52022 5.28089,1.45291 10.22324,4.02717 13.4276,6.99383 l 1.30354,1.20686 -0.4399,1.36028 c -0.55675,1.72159 -0.75791,5.63077 -0.39654,7.70591 0.44519,2.5565 1.32541,4.4815 3.37472,7.38034 0.53684,0.75939 -3.75433,5.639 -6.74153,7.66597 -2.03739,1.38248 -7.11857,3.77929 -8.01199,3.77929 -0.14543,0 0.42103,-0.45966 1.25879,-1.02147 z" id="SvgjsPath1050"></path>
    <path style="fill:#ffffff;stroke-width:0;stroke-opacity:6.58222e-07" d="m 134.94378,88.93548 c -0.45558,-0.09451 -0.92233,-0.265836 -1.03722,-0.380722 -0.28037,-0.280374 2.56581,-3.463292 8.58561,-9.601369 6.26364,-6.386721 9.20104,-9.032636 11.02345,-9.929546 1.36806,-0.673304 1.52857,-0.701041 3.93662,-0.680261 1.63412,0.0141 2.76675,0.129743 3.2448,0.331293 l 0.7344,0.30963 -1.92635,2.174933 c -2.60578,2.942043 -12.34368,12.670002 -14.90671,14.891487 -2.89182,2.50647 -3.88262,2.955611 -6.64421,3.01191 -1.20014,0.02447 -2.55481,-0.03284 -3.01039,-0.127355 z" id="SvgjsPath1049"></path>
    <path style="fill:#ffffff;stroke-width:0;stroke-opacity:6.58222e-07" d="m 146.37817,87.615777 c 0.1755,-0.510066 6.06803,-6.687624 11.33939,-11.887889 6.35966,-6.273893 7.28453,-6.972469 9.73282,-7.351429 1.68238,-0.260409 5.10538,0.02924 5.54538,0.469236 1.06666,1.066666 -6.58037,7.774804 -14.55083,12.764289 -2.28785,1.432192 -11.46122,6.216916 -11.91919,6.216916 -0.12112,0 -0.18753,-0.09501 -0.14757,-0.211123 z" id="SvgjsPath1048"></path>
    <path style="fill:#ffffff;stroke-width:0;stroke-opacity:6.58222e-07" d="m 168.28203,79.987715 c -1.42219,-0.190684 -1.81658,-0.441326 -1.52219,-0.967375 0.10748,-0.192055 1.22093,-1.489678 2.47433,-2.883608 2.71305,-3.017235 6.46198,-6.439554 7.72263,-7.049822 1.35554,-0.656209 3.05651,-0.895009 5.88769,-0.826576 l 2.5478,0.06158 -4.76028,4.826573 c -4.9013,4.969554 -6.75985,6.468477 -8.3073,6.699824 -1.77809,0.265826 -2.82937,0.302077 -4.04268,0.1394 z" id="SvgjsPath1047"></path>
    <path style="fill:#ffffff;stroke-width:0;stroke-opacity:6.58222e-07" d="m 180.33935,79.981885 c -2.01854,-0.283977 -2.07029,-0.339049 -1.30304,-1.386471 1.05868,-1.445262 5.15354,-5.726082 7.17783,-7.503794 2.8133,-2.470614 3.49371,-2.718998 7.74102,-2.82587 l 3.49191,-0.08786 -5.12141,5.109766 c -5.07693,5.065374 -6.15394,5.972587 -7.62765,6.425102 -1.12418,0.345189 -2.99634,0.460788 -4.35866,0.269131 z" id="SvgjsPath1046"></path>
    <path style="fill:#ffffff;stroke-width:0;stroke-opacity:6.58222e-07" d="m 192.3273,80.831405 c -1.37752,-0.605579 -2.54972,-1.146186 -2.60488,-1.201349 -0.15943,-0.159429 6.9064,-7.173901 8.65643,-8.593512 0.87206,-0.707413 2.03633,-1.550369 2.58726,-1.873237 l 1.0017,-0.587032 1.79532,0.584672 c 2.01791,0.657158 2.63145,1.15009 2.39477,1.923996 -0.22285,0.728661 -10.41253,10.858949 -10.91627,10.852644 -0.22536,-0.0028 -1.53681,-0.500603 -2.91433,-1.106182 z" id="SvgjsPath1045"></path>
    <path style="fill:#ffffff;stroke-width:0;stroke-opacity:6.58222e-07" d="m 201.12991,85.529115 c -0.5872,-0.304877 -1.39076,-0.896647 -1.78568,-1.315044 l -0.71804,-0.760722 0.50011,-0.915682 c 0.27505,-0.503625 2.51101,-2.946895 4.96877,-5.42949 3.38008,-3.41422 4.72216,-4.625936 5.50923,-4.974092 l 1.04054,-0.460284 1.2467,0.569967 c 0.68568,0.313481 1.66569,0.81512 2.17779,1.114752 l 0.93111,0.544785 -0.71317,1.012545 c -0.97001,1.377194 -8.70077,9.148586 -10.21305,10.266716 -0.67014,0.49548 -1.36654,0.900872 -1.54755,0.900872 -0.18102,0 -0.80956,-0.249445 -1.39676,-0.554323 z" id="SvgjsPath1044"></path>
    <path style="fill:#ffffff;stroke-width:0;stroke-opacity:6.58222e-07" d="m 208.38909,88.591094 c -2.13417,-0.364569 -2.43967,-0.58086 -2.00572,-1.420031 0.17406,-0.336596 2.73592,-3.118924 5.69302,-6.18295 l 5.37654,-5.570956 1.65647,1.498733 c 0.91107,0.824303 1.92629,1.783175 2.25605,2.130826 l 0.59957,0.632092 -4.10752,4.071504 c -5.14837,5.103208 -5.84556,5.459655 -9.46841,4.840782 z" id="SvgjsPath1043"></path>
    <path style="fill:#ffffff;stroke-width:0;stroke-opacity:6.58222e-07" d="m 219.19115,88.918085 c -2.13282,-0.30163 -2.19928,-0.394202 -1.18648,-1.652731 0.4749,-0.590123 1.95995,-2.151717 3.30011,-3.47021 l 2.43666,-2.397261 1.63432,1.743463 c 2.56028,2.73127 4.43433,4.945066 4.43433,5.238236 0,0.14753 -0.26969,0.330149 -0.59932,0.405819 -1.02273,0.234783 -8.58918,0.334982 -10.01962,0.132684 z" id="SvgjsPath1042"></path>
    <path style="fill:#ffffff;stroke-width:0;stroke-opacity:6.58222e-07" d="m 271.1824,113.29562 c -2.71765,-2.10446 -21.56213,-21.531397 -21.92895,-22.606749 -0.0731,-0.214181 10.68144,-9.341164 15.22641,-12.922134 7.00932,-5.522637 8.69786,-6.196888 11.70402,-4.673549 3.14767,1.595043 5.33619,5.465093 6.72981,11.900586 0.43816,2.023321 0.62715,9.107702 0.30322,11.366379 -0.69598,4.852957 -3.35701,10.181937 -7.4983,15.016127 -1.21902,1.42299 -2.82454,2.82048 -3.24033,2.82048 -0.0727,0 -0.65584,-0.40551 -1.29588,-0.90114 z" id="SvgjsPath1041"></path>
    <path style="fill:#ffffff;stroke-width:0;stroke-opacity:6.58222e-07" d="m 261.66951,169.5097 c 0.17913,-0.27657 2.53324,-4.13143 5.23137,-8.56636 9.34749,-15.36452 11.21175,-18.76766 12.02777,-21.95625 0.15807,-0.61767 0.38533,-1.15567 0.50501,-1.19557 0.11969,-0.0399 1.10991,0.86083 2.2005,2.0016 3.07857,3.22023 4.62051,6.71477 4.62051,10.47151 0,3.88551 -1.6315,7.37185 -5.04915,10.7895 -4.31208,4.31209 -9.47564,6.67336 -19.33809,8.84322 -0.50083,0.11018 -0.50944,0.0933 -0.19792,-0.38765 z" id="SvgjsPath1040"></path>
    <path style="fill:#ffffff;stroke-width:0;stroke-opacity:6.58222e-07" d="m 262.69648,142.61684 c -1.76119,-1.6541 -3.89684,-2.75094 -7.16171,-3.67815 -1.13396,-0.32205 -2.3108,-0.71702 -2.61519,-0.87771 l -0.55345,-0.29218 1.0719,-0.46151 c 2.06283,-0.88816 8.76069,-3.09883 11.63206,-3.83923 4.20871,-1.08525 4.62402,-1.01623 4.61878,0.76762 -0.008,2.70376 -3.66051,9.81787 -5.04074,9.81787 -0.23206,0 -1.1103,-0.64652 -1.95165,-1.43671 z" id="SvgjsPath1039"></path>
    <path style="fill:#ffffff;stroke-width:0;stroke-opacity:6.58222e-07" d="m 236.67497,167.94374 c -5.68528,-2.07091 -10.74985,-5.4705 -13.50158,-9.06293 -1.5723,-2.05266 -1.56144,-1.98636 -0.59938,-3.65995 0.96775,-1.68349 1.60709,-3.25626 2.14764,-5.28313 0.48822,-1.83068 0.50219,-6.6873 0.0249,-8.66954 l -0.32956,-1.36879 1.33445,-1.21136 c 3.65295,-3.31598 9.2137,-6.02061 15.39112,-7.48593 1.01884,-0.24167 1.94813,-0.44009 2.06509,-0.44093 0.11696,-8.4e-4 -0.56859,0.44368 -1.52344,0.98783 -6.26293,3.56908 -10.92233,9.05002 -12.40551,14.59283 -0.82794,3.09412 -0.65315,7.58899 0.44307,11.3937 1.40076,4.86168 3.74923,7.72432 8.4787,10.33501 1.44328,0.7967 0.88163,0.75001 -1.52553,-0.12681 z" id="SvgjsPath1038"></path>
    <path style="fill:#000000;stroke-width:0;stroke-opacity:6.58222e-07" d="m 119.42715,271.87111 -1.79795,-16.72634 2.50623,0.6538 5.06694,22.06569" id="SvgjsPath1037"></path>
    <path style="fill:#ffffff;stroke-width:0;stroke-opacity:0.000000658222" d="m 130.86862,297.37896 c 0,-0.26797 -3.51266,-12.84021 -4.53902,-16.24571 -0.85129,-2.82458 -5.49045,-22.22039 -5.48674,-22.93941 4.7e-4,-0.091 0.95703,0.31342 2.1257,0.89868 5.57727,2.79309 10.39653,4.04355 18.17469,4.71582 3.95899,0.34218 6.5008,0.85233 7.9596,1.59751 0.45919,0.23456 2.38451,1.46801 4.2785,2.74099 6.65685,4.47416 11.17966,6.07006 18.96027,6.69021 5.20036,0.41449 11.44763,-0.0728 15.74928,-1.22846 3.84207,-1.03219 6.98325,-2.57165 11.76743,-5.76711 4.54065,-3.0328 5.75907,-3.47644 10.77368,-3.92282 7.79843,-0.69418 11.09335,-1.33457 14.79882,-2.87627 3.34207,-1.3905 5.4418,-2.13828 6.00423,-2.13828 h 0.52275 l -0.75763,2.88761 c -0.41669,1.58819 -2.36675,8.37951 -4.33346,15.09184 -1.96671,6.71233 -4.078,14.01794 -4.69175,16.23469 -0.61375,2.21675 -1.16551,4.08008 -1.22613,4.14072 -0.15415,0.15423 -90.08022,0.27401 -90.08022,0.11999 z" id="SvgjsPath1036"></path>
    <ellipse style="fill:#ffffff;stroke-width:0;stroke-opacity:6.58222e-07" id="SvgjsEllipse1035" cx="104.82565" cy="152.6806" rx="4.5765877" ry="3.0510585"></ellipse>
    <ellipse style="fill:#ffffff;stroke-width:0;stroke-opacity:6.58222e-07" id="SvgjsEllipse1034" cx="246.23286" cy="151" rx="4.5765877" ry="3.0510585"></ellipse>
  </g>
</svg><style>@media (prefers-color-scheme: light) { :root { filter: none; } }
@media (prefers-color-scheme: dark) { :root { filter: none; } }
</style></svg>